<svg width="32" height="32" viewBox="0 0 32 32" fill="none" xmlns="http://www.w3.org/2000/svg">
<g clip-path="url(#clip0_16_27)">
<path d="M5.33333 10.6667C5.68696 10.6667 6.02609 10.5262 6.27614 10.2761C6.52619 10.0261 6.66667 9.68696 6.66667 9.33333C6.66667 8.97971 6.52619 8.64057 6.27614 8.39052C6.02609 8.14048 5.68696 8 5.33333 8C4.97971 8 4.64057 8.14048 4.39052 8.39052C4.14048 8.64057 4 8.97971 4 9.33333C4 9.68696 4.14048 10.0261 4.39052 10.2761C4.64057 10.5262 4.97971 10.6667 5.33333 10.6667V10.6667ZM10.6667 9.33333C10.6667 9.68696 10.5262 10.0261 10.2761 10.2761C10.0261 10.5262 9.68695 10.6667 9.33333 10.6667C8.97971 10.6667 8.64057 10.5262 8.39052 10.2761C8.14048 10.0261 8 9.68696 8 9.33333C8 8.97971 8.14048 8.64057 8.39052 8.39052C8.64057 8.14048 8.97971 8 9.33333 8C9.68695 8 10.0261 8.14048 10.2761 8.39052C10.5262 8.64057 10.6667 8.97971 10.6667 9.33333V9.33333ZM13.3333 10.6667C13.687 10.6667 14.0261 10.5262 14.2761 10.2761C14.5262 10.0261 14.6667 9.68696 14.6667 9.33333C14.6667 8.97971 14.5262 8.64057 14.2761 8.39052C14.0261 8.14048 13.687 8 13.3333 8C12.9797 8 12.6406 8.14048 12.3905 8.39052C12.1405 8.64057 12 8.97971 12 9.33333C12 9.68696 12.1405 10.0261 12.3905 10.2761C12.6406 10.5262 12.9797 10.6667 13.3333 10.6667V10.6667Z" fill="white" fill-opacity="0.5"/>
<path fill-rule="evenodd" clip-rule="evenodd" d="M4 4C2.93913 4 1.92172 4.42143 1.17157 5.17157C0.421427 5.92172 0 6.93913 0 8L0 24C0 25.0609 0.421427 26.0783 1.17157 26.8284C1.92172 27.5786 2.93913 28 4 28H28C29.0609 28 30.0783 27.5786 30.8284 26.8284C31.5786 26.0783 32 25.0609 32 24V8C32 6.93913 31.5786 5.92172 30.8284 5.17157C30.0783 4.42143 29.0609 4 28 4H4ZM28 6.66667H4C3.64638 6.66667 3.30724 6.80714 3.05719 7.05719C2.80714 7.30724 2.66667 7.64638 2.66667 8V12H29.3333V8C29.3333 7.64638 29.1929 7.30724 28.9428 7.05719C28.6928 6.80714 28.3536 6.66667 28 6.66667ZM2.66667 24V14.6667H29.3333V24C29.3333 24.3536 29.1929 24.6928 28.9428 24.9428C28.6928 25.1929 28.3536 25.3333 28 25.3333H4C3.64638 25.3333 3.30724 25.1929 3.05719 24.9428C2.80714 24.6928 2.66667 24.3536 2.66667 24V24Z" fill="white" fill-opacity="0.5"/>
</g>
<defs>
<clipPath id="clip0_16_27">
<rect width="32" height="32" fill="white"/>
</clipPath>
</defs>
</svg>
